<svg xmlns="http://www.w3.org/2000/svg" viewBox="22.9996337890625 -636.600341796875 498.92533919717107 666.8004150390625">
  <path transform="scale(1,-1)" d="M42.9996337890625 3.8001708984375 50.399658203125 190.0003662109375H117.2003173828125L136.800537109375 88.0006103515625Q156.4005126953125 82.00048828125 180.70050048828125 76.200439453125Q205.00048828125 70.400390625 228.90045166015625 65.5003662109375Q252.8004150390625 60.600341796875 271.400390625 57.90032958984375Q290.0003662109375 55.2003173828125 297.600341796875 55.2003173828125Q305.00048828125 55.2003173828125 320.10052490234375 62.4002685546875Q335.2005615234375 69.6002197265625 351.800537109375 80.3001708984375Q368.4005126953125 91.0001220703125 381.1004638671875 102.60009765625Q393.8004150390625 114.2000732421875 395.200439453125 122.60009765625Q397.200439453125 132.4000244140625 398.00042724609375 146.29998779296875Q398.8004150390625 160.199951171875 398.8004150390625 174.49993896484375Q398.8004150390625 188.7999267578125 397.10040283203125 199.7999267578125Q395.400390625 210.7999267578125 392.400390625 214.199951171875Q384.400390625 224.7999267578125 358.10028076171875 241.19989013671875Q331.8001708984375 257.599853515625 297.70001220703125 277.2998046875Q263.599853515625 296.999755859375 229.89971923828125 316.99969482421875Q196.1995849609375 336.9996337890625 171.8995361328125 354.799560546875Q147.5994873046875 372.5994873046875 141.599609375 384.9993896484375Q138.799560546875 393.599609375 136.299560546875 410.29974365234375Q133.799560546875 426.9998779296875 132.799560546875 447.699951171875Q131.799560546875 468.4000244140625 131.1995849609375 487.2000732421875Q112.799560546875 472.800048828125 104.099609375 462.300048828125Q95.399658203125 451.800048828125 92.69970703125 441.800048828125Q89.999755859375 431.800048828125 89.999755859375 416.5999755859375Q89.999755859375 395.7996826171875 92.0997314453125 381.8995361328125Q94.19970703125 367.9993896484375 100.1998291015625 356.79931640625Q109.3997802734375 341.3995361328125 127.9996337890625 328.399658203125Q146.5994873046875 315.3997802734375 177.5992431640625 295.2000732421875Q202.9993896484375 279.60009765625 230.79962158203125 263.10009765625Q258.599853515625 246.60009765625 283.90008544921875 230.7000732421875Q309.2003173828125 214.800048828125 327.00048828125 202.10003662109375Q344.8006591796875 189.4000244140625 349.20068359375 181.2000732421875Q354.6007080078125 172.400146484375 353.90069580078125 158.7000732421875Q353.20068359375 145 351.20068359375 135.7999267578125Q346.400634765625 126.7999267578125 330.90069580078125 116.29998779296875Q315.4007568359375 105.800048828125 301.000732421875 99.2000732421875Q302.4007568359375 110 302.9007568359375 122.0Q303.4007568359375 134 302.9007568359375 143.79998779296875Q302.4007568359375 153.5999755859375 298.80078125 157.7999267578125Q291.2008056640625 167.599853515625 266.50079345703125 183.999755859375Q241.80078125 200.399658203125 208.80072021484375 219.799560546875Q175.8006591796875 239.199462890625 142.7005615234375 259.599365234375Q109.6004638671875 279.999267578125 85.30035400390625 299.2991943359375Q61.000244140625 318.59912109375 54.2000732421875 333.1990966796875Q50 343.3990478515625 47.39996337890625 359.899169921875Q44.7999267578125 376.3992919921875 44.19989013671875 395.199462890625Q43.599853515625 413.9996337890625 44.6998291015625 431.2998046875Q45.7998046875 448.5999755859375 48.7998046875 459.800048828125Q56.19970703125 477.2000732421875 76.19970703125 498.10009765625Q96.19970703125 519.0001220703125 122.499755859375 540.1001586914062Q148.7998046875 561.2001953125 176.4998779296875 578.500244140625Q204.199951171875 595.80029296875 228.5 606.2003173828125Q252.800048828125 616.600341796875 268.2000732421875 616.600341796875Q274.60009765625 616.600341796875 293.30029296875 615.7003173828125Q312.00048828125 614.80029296875 337.70074462890625 612.7002563476562Q363.4010009765625 610.6002197265625 391.10125732421875 608.0001831054688Q418.801513671875 605.400146484375 443.6016845703125 602.0001220703125Q468.40185546875 598.60009765625 485.8018798828125 595.60009765625L477.8018798828125 420.39990234375H413.4013671875L394.401123046875 525.60009765625Q379.8011474609375 532.60009765625 357.7010498046875 538.7001342773438Q335.6009521484375 544.8001708984375 314.0008544921875 548.8002319335938Q292.4007568359375 552.80029296875 278.80078125 552.80029296875Q272.0008544921875 552.80029296875 266.8009033203125 551.7003173828125Q261.6009521484375 550.600341796875 258.30096435546875 548.8003540039062Q255.0009765625 547.0003662109375 252.6009521484375 543.400390625Q247.8009033203125 536.8004150390625 246.10089111328125 522.8004760742188Q244.40087890625 508.800537109375 244.90087890625 493.1005859375Q245.40087890625 477.400634765625 247.60089111328125 464.3006591796875Q249.8009033203125 451.20068359375 253.8009033203125 446.0006103515625Q262.20068359375 435.80078125 284.500732421875 422.0008544921875Q306.80078125 408.200927734375 336.1009521484375 392.40093994140625Q365.401123046875 376.6009521484375 396.5013427734375 359.1009521484375Q427.6015625 341.6009521484375 453.70172119140625 323.30096435546875Q479.8018798828125 305.0009765625 495.40185546875 287.4010009765625Q498.40185546875 276.60107421875 499.90185546875 256.00115966796875Q501.40185546875 235.4012451171875 501.8018798828125 211.10125732421875Q502.201904296875 186.80126953125 501.30194091796875 163.8011474609375Q500.4019775390625 140.801025390625 497.802001953125 125.20068359375Q488.4019775390625 102.6004638671875 463.40179443359375 78.7003173828125Q438.401611328125 54.8001708984375 406.9013671875 34.60009765625Q375.401123046875 14.4000244140625 347.200927734375 2.0999755859375Q319.000732421875 -10.2000732421875 303.20068359375 -10.2000732421875Q283.0006103515625 -10.2000732421875 249.1004638671875 -8.800048828125Q215.2003173828125 -7.4000244140625 176.60015869140625 -5.29998779296875Q138 -3.199951171875 102.599853515625 -0.89990234375Q67.19970703125 1.400146484375 42.9996337890625 3.8001708984375Z" fill="black"/>
</svg>